<svg xmlns="http://www.w3.org/2000/svg" width="24.041" height="23.992"><path d="M24.042 11.202c-.895 4.971-4.042 8.077-10.337 6.98a11.111 11.111 0 01-1.305-.312l1.418-8.138-2.573.458.254-1.457 2.573-.458.244-1.4-2.573.458.254-1.457 2.573-.458.944-5.416 2.282.4-.8 4.591 5.14-.889-.254 1.457-5.14.889-.244 1.4 5.113-.894-.254 1.457-5.113.894-1.231 7.065c3.048.39 5.944-.947 6.859-5.547z"/><path d="M5.027 23.711l4.99-3.64a.683.683 0 10-.805-1.103l-3.66 2.67 1.803-11.525a.683.683 0 10-1.349-.21l-1.8 11.523-2.67-3.658a.683.683 0 10-1.102.805l3.64 4.99a.683.683 0 00.953.148z" fill="#2b9f00"/></svg>