<svg xmlns="http://www.w3.org/2000/svg" width="27.781" height="27.78"><path d="M2.222 17.696A12.279 12.279 0 0113.889 1.621a12.107 12.107 0 015.386 1.272 12.361 12.361 0 013.807 2.969h-1.973a.811.811 0 000 1.621h3.6a.412.412 0 00.1-.013.8.8 0 00.128-.028.817.817 0 00.127-.049.426.426 0 00.092-.046.421.421 0 00.08-.069.809.809 0 00.181-.226.76.76 0 00.059-.142.751.751 0 00.029-.133.42.42 0 00.014-.105V3.066a.811.811 0 10-1.621 0v1.291A13.7 13.7 0 0013.889 0 13.9 13.9 0 00.68 18.2a.809.809 0 00.771.56.812.812 0 00.771-1.062zM27.071 9.503a.811.811 0 00-1.539.512 12.277 12.277 0 01-11.643 16.144 12.106 12.106 0 01-5.385-1.272 12.36 12.36 0 01-3.807-2.97h1.976a.811.811 0 000-1.621H3.065a.421.421 0 00-.1.013.778.778 0 00-.128.028.8.8 0 00-.128.049.414.414 0 00-.09.045.422.422 0 00-.081.069.869.869 0 00-.1.1.808.808 0 00-.082.123.768.768 0 00-.059.141.786.786 0 00-.03.136.421.421 0 00-.014.106v3.608a.811.811 0 001.621 0v-1.292a13.7 13.7 0 0010.014 4.358A13.9 13.9 0 0027.07 9.502z"/><g><path d="M21.511 15.49c-.923 5.128-4.169 8.331-10.663 7.2a11.486 11.486 0 01-1.346-.322l1.463-8.394-2.654.473.262-1.5 2.653-.472.252-1.446-2.654.473.262-1.5 2.653-.473.973-5.586 2.354.41-.825 4.736 5.3-.917-.262 1.5-5.3.917-.252 1.446 5.274-.922-.262 1.5-5.274.922-1.27 7.288c3.144.4 6.131-.977 7.074-5.721z"/></g></svg>